{"title":"Mickey.And.Donald.Have.A.Farm.2012.READNFO.DVDRiP.XViD-UNiQUE.av","uid":7918829,"size":1545793537,"categoryP":"video","categoryS":"movies","magnet":"?xt=urn:btih:ed03f2e7cbc12b23d68508247d6509cae0b77e24&amp;dn=Mickey.And.Donald.Have.A.Farm.2012.READNFO.DVDRiP.XViD-UNiQUE.av&amp;tr=udp%3A%2F%2Ftracker.openbittorrent.com%3A80&amp;tr=udp%3A%2F%2Fopen.demonii.com%3A1337&amp;tr=udp%3A%2F%2Ftracker.coppersurfer.tk%3A6969&amp;tr=udp%3A%2F%2Fexodus.desync.com%3A6969","seeders":1,"leechers":0,"uploader":"Gh0stNet","files":1,"time":1355426547,"description":"Mickey And Donald Have A Farm 2012 UNiQUE\n\n\n&quot;Mickey Mouse Clubhouse&quot; Mickey and Donald Have a Farm! (2012)\nGenre: Animation | Comedy | Family\nCast: Wayne Allwine, Tony Anselmo, Bill Farmer\n\nooooo ooo ooooo ooo o8o .oooooo. ooooo ooo oooooooooooo\n`888' `8' `888b. `8' `&quot;' d8P' `Y8b `888' `8' `888' `8\n888 8 8 `88b. 8 oooo 888 888 888 8 888\n888 8 8 `88b. 8 `888 888 888 888 8 888oooo8\n888 8 8 `88b.8 888 888 888 888 8 888 &quot;\n`88. .8' 8 `888 888 `88b d88b `88. .8' 888 o\n`YbodP' o8o `8 o888o `Y8bood8P'Ybd' `YbodP' o888ooooood8\n\n\n\n\n.........why be the same as everyone else when YOU can be UNiQUE.........\n\n\n\n\n\n\nFormat : AVI\nFormat/Info : Audio Video Interleave\nFile size : 1.44 GiB\nDuration : 1h 41mn\nOverall bit rate : 2 027 Kbps\nWriting application : VirtualDubMod 1.5.10.2 (build 2540/release)\nWriting library : VirtualDubMod build 2540/release\n\nVideo\nID : 0\nFormat : MPEG-4 Visual\nFormat profile : Advanced Simple@L5\nFormat settings, BVOP : 2\nFormat settings, QPel : No\nFormat settings, GMC : No warppoints\nFormat settings, Matrix : Default (H.263)\nMuxing mode : Packed bitstream\nCodec ID : XVID\nCodec ID/Hint : XviD\nDuration : 1h 41mn\nBit rate : 1 633 Kbps\nWidth : 720 pixels\nHeight : 400 pixels\nDisplay aspect ratio : 16:9\nFrame rate : 29.970 fps\nColor space : YUV\nChroma subsampling : 4:2:0\nBit depth : 8 bits\nScan type : Progressive\nCompression mode : Lossy\nBits/(Pixel*Frame) : 0.189\nStream size : 1.16 GiB (81%)\nWriting library : XviD 64\n\nAudio\nID : 1\nFormat : AC-3\nFormat/Info : Audio Coding 3\nMode extension : CM (complete main)\nFormat settings, Endianness : Big\nCodec ID : 2000\nDuration : 1h 41mn\nBit rate mode : Constant\nBit rate : 384 Kbps\nChannel(s) : 6 channels\nChannel positions : Front: L C R, Side: L R, LFE\nSampling rate : 48.0 KHz\nBit depth : 16 bits\nCompression mode : Lossy\nStream size : 278 MiB (19%)\nAlignment : Split accross interleaves\nInterleave, duration : 34 ms (1.01 video frame)\nInterleave, preload duration : 500 ms\n\n\n\n\n &lt;a href=&quot;\nhttp://www.imdb.com/title/tt2474580/&quot; rel=&quot;nofollow&quot; target=&quot;_NEW&quot;&gt;\nhttp://www.imdb.com/title/tt2474580/&lt;/a&gt;\n\n\n\nWhen the powerful wind from Pete's Giant Windmill accidentally sends all of the animals on the new Clubhouse Farm flying to different places, Mickey and his pals set out to find and rescue them.\n\n\n\n\nSource Used ..............Mickey And Donald Have A Farm 2012 TTR DVD-R LATINO..............................Thanks\n\n\n\n++++++++++++++++++++++++++++++++++++++++++++++++++++++++++++++++++++++++++++++++++++++++++++++++++++++++++++++++++++++++++++++++++++++++++++++++++++++++++++++++++++++++++++\n\n\n\n\n\nReasons for READNFO is the source came as 4 vobs but the last vob had no audio on it ......So instead of not releasing i cut the video at 1hr41mn when the audio ran out at the end of episode 3 on the release ,i dont see this anywhere much yet but 1hr41mn of keeping the kids quiet is better than non\n\nEnjoy\n\n\nGreets\n\n\nINSPiRAL,LEGION,DiLLON,THORN,DiRTYMARY\n &lt;a href=&quot;\nhttp://img38.imageshack.us/img38/4832/802411.jpg&quot; rel=&quot;nofollow&quot; target=&quot;_NEW&quot;&gt;\nhttp://img38.imageshack.us/img38/4832/802411.jpg&lt;/a&gt; &lt;a href=&quot;\nhttp://img842.imageshack.us/img842/1310/802412.jpg&quot; rel=&quot;nofollow&quot; target=&quot;_NEW&quot;&gt;\nhttp://img842.imageshack.us/img842/1310/802412.jpg&lt;/a&gt;","torrent":{"xt":"urn:btih:ed03f2e7cbc12b23d68508247d6509cae0b77e24","amp;dn":"Mickey.And.Donald.Have.A.Farm.2012.READNFO.DVDRiP.XViD-UNiQUE.av","amp;tr":["udp%3A%2F%2Ftracker.openbittorrent.com%3A80","udp%3A%2F%2Fopen.demonii.com%3A1337","udp%3A%2F%2Ftracker.coppersurfer.tk%3A6969","udp%3A%2F%2Fexodus.desync.com%3A6969"],"infoHash":"ed03f2e7cbc12b23d68508247d6509cae0b77e24","infoHashBuffer":{"type":"Buffer","data":[237,3,242,231,203,193,43,35,214,133,8,36,125,101,9,202,224,183,126,36]},"announce":[],"urlList":[]}}